# xmcd CD database file
#
# Track frame offsets:
#	150
#	32764
#	66150
#	107191
#	120185
#	146332
#	180870
#	200251
#	224943
#
# Disc length: 3115 seconds
#
# Revision: 1
# Processed by: cddbd v1.5.2PL0 Copyright (c) Steve Scherf et al.
# Submitted via: CDex 1.51
#
DISCID=7e0c2909
DTITLE=Asaf Sirkis and The Inner Noise - The Song Within
DYEAR=2007
DGENRE=Jazz
TTITLE0=The Song Within
TTITLE1=Nothingness First Part 1-Nothingness
TTITLE2=When You Ask Why
TTITLE3=Nothingness First Part 2 - Love
TTITLE4=Miniature
TTITLE5=Hymn
TTITLE6=Theme For Gary
TTITLE7=The Shadow
TTITLE8=Sweet Song
EXTD=YEAR: 2007
EXTT0=
EXTT1=
EXTT2=
EXTT3=
EXTT4=
EXTT5=
EXTT6=
EXTT7=
EXTT8=
PLAYORDER=
